<svg viewBox="0 0 900 300" xmlns="http://www.w3.org/2000/svg" xmlns:xlink="http://www.w3.org/1999/xlink">
  <defs>
    <style>
      text {
        fill: black;
        stroke: none;
        dominant-baseline: middle;
        text-anchor: middle;
        font-size: 14pt;
        font-family: sans-serif;
      }

      text.process {
        font-size: 11pt;
      }

      text.process_left {
        text-anchor: start;
      }

      text.process_right {
        text-anchor: end;
      }

      line {
        stroke-linecap: round;
      }
    </style>

    <marker id="arrowhead" markerWidth="10" markerHeight="7"
      refX="0" refY="3.5" orient="auto">
      <!-- <polygon points="0 0, 10 3.5, 0 7" /> -->
      <line x1="1" y1="1.5" x2="7" y2="3.5" stroke="#000"/>
      <line x1="1" y1="5.5" x2="7" y2="3.5" stroke="#000"/>
      <line x1="0" y1="3.5" x2="7" y2="3.5" stroke="#000"/>
    </marker>
  </defs>

  <svg x="40" y="10">
    <g id="Icon-Resource/Application-Integration/Res_Amazon-API-Gateway_Endpoint_48" stroke="none" stroke-width="1" fill="none" fill-rule="evenodd">
        <path d="M25.909,24.955 L27.817,24.955 L27.817,23.046 L25.909,23.046 L25.909,24.955 Z M23.045,24.955 L24.954,24.955 L24.954,23.046 L23.045,23.046 L23.045,24.955 Z M20.182,24.955 L22.091,24.955 L22.091,23.046 L20.182,23.046 L20.182,24.955 Z M37.318,31.003 L30.728,36.802 L30.728,11.332 L37.318,17.13 L37.318,31.003 Z M30.944,8.926 C30.74,8.839 29.856,8.579 29.242,8.92 L28.728,9.205 L28.728,38.929 L29.242,39.214 C29.471,39.341 29.737,39.385 29.993,39.385 C30.421,39.385 30.816,39.263 30.944,39.208 L31.092,39.146 L38.565,32.569 C39.028,32.299 39.318,31.813 39.318,31.284 L39.318,16.849 C39.318,16.321 39.029,15.835 38.566,15.564 L31.092,8.988 L30.944,8.926 Z M17.273,36.803 L10.682,31.004 L10.682,17.129 L17.273,11.331 L17.273,36.803 Z M17.055,8.926 L16.907,8.988 L9.432,15.565 C8.971,15.836 8.682,16.321 8.682,16.849 L8.682,31.284 C8.682,31.812 8.971,32.299 9.433,32.568 L16.907,39.146 L17.055,39.208 C17.182,39.263 17.578,39.385 18.006,39.385 C18.261,39.385 18.527,39.341 18.756,39.215 L19.273,38.93 L19.273,9.204 L18.756,8.919 C18.144,8.582 17.258,8.839 17.055,8.926 L17.055,8.926 Z M44,32.284 L32.284,44 L15.715,44 L4,32.284 L4,15.716 L15.715,4 L32.284,4 L44,15.716 L44,32.284 Z M33.112,2 L14.887,2 L2,14.888 L2,33.112 L14.887,46 L33.112,46 L46,33.112 L46,14.888 L33.112,2 Z" id="AWS-Amazon-API-Gateway_Endpoint_Resource-Icon_light-bg" fill="#FF4F8B"></path>
    </g>
  </svg>

  <text x="64" y="76">API Gateway</text>

  <line x1="98" y1="34" x2="265" y2="34" stroke="#000"
    stroke-width="2" marker-end="url(#arrowhead)" />

  <text x="181.5" y="23" class="process">5XX errors update a</text>

  <svg x="290" y="5">
    <g id="Icon-Resource/Managment-Governance/Res_Amazon-Cloudwatch_Alarm_48" stroke="none" stroke-width="1" fill="none" fill-rule="evenodd">
        <path d="M41.4246,40.6675 L34.6366,40.6675 L34.6366,19.8305 C36.8216,20.5265 39.2386,20.5265 41.4246,19.8305 L41.4246,40.6675 Z M41.9946,17.4595 C39.4996,18.6475 36.5596,18.6465 34.0666,17.4595 C33.7586,17.3125 33.3946,17.3335 33.1026,17.5165 C32.8126,17.6995 32.6366,18.0185 32.6366,18.3615 L32.6366,41.6675 C32.6366,42.2205 33.0836,42.6675 33.6366,42.6675 L42.4246,42.6675 C42.9776,42.6675 43.4246,42.2205 43.4246,41.6675 L43.4246,18.3615 C43.4246,18.0185 43.2486,17.6995 42.9586,17.5165 C42.6676,17.3335 42.3036,17.3115 41.9946,17.4595 L41.9946,17.4595 Z M38.0306,4.0005 C40.8716,4.0005 43.1826,6.3115 43.1826,9.1515 C43.1826,11.9925 40.8716,14.3035 38.0306,14.3035 C35.1906,14.3035 32.8796,11.9925 32.8796,9.1515 C32.8796,6.3115 35.1906,4.0005 38.0306,4.0005 L38.0306,4.0005 Z M38.0306,16.3035 C41.9746,16.3035 45.1826,13.0955 45.1826,9.1515 C45.1826,5.2085 41.9746,2.0005 38.0306,2.0005 C34.0876,2.0005 30.8796,5.2085 30.8796,9.1515 C30.8796,13.0955 34.0876,16.3035 38.0306,16.3035 L38.0306,16.3035 Z M2.0006,46.1835 L45.9406,46.1835 L45.9406,44.1835 L2.0006,44.1835 L2.0006,46.1835 Z M20.5756,40.6675 L27.3636,40.6675 L27.3636,27.7285 L20.5756,27.7285 L20.5756,40.6675 Z M19.5756,42.6675 L28.3636,42.6675 C28.9166,42.6675 29.3636,42.2205 29.3636,41.6675 L29.3636,26.7285 C29.3636,26.1755 28.9166,25.7285 28.3636,25.7285 L19.5756,25.7285 C19.0236,25.7285 18.5756,26.1755 18.5756,26.7285 L18.5756,41.6675 C18.5756,42.2205 19.0236,42.6675 19.5756,42.6675 L19.5756,42.6675 Z M6.5156,40.6675 L13.3036,40.6675 L13.3036,23.3345 L6.5156,23.3345 L6.5156,40.6675 Z M5.5156,42.6675 L14.3036,42.6675 C14.8566,42.6675 15.3036,42.2205 15.3036,41.6675 L15.3036,22.3345 C15.3036,21.7815 14.8566,21.3345 14.3036,21.3345 L5.5156,21.3345 C4.9626,21.3345 4.5156,21.7815 4.5156,22.3345 L4.5156,41.6675 C4.5156,42.2205 4.9626,42.6675 5.5156,42.6675 L5.5156,42.6675 Z" id="Amazon-Cloudwatch_alarm_Resource-Icon_light-bg" fill="#FF4F8B"></path>
    </g>
  </svg>

  <text x="314" y="76">CloudWatch alarm</text>

  <line x1="344" y1="34" x2="515" y2="34" stroke="#000"
    stroke-width="2" marker-end="url(#arrowhead)" />

  <text x="431.5" y="23" class="process">sends a notification to</text>

  <svg x="540" y="10">
    <g id="Icon-Resource/Application-Integration/Res_Amazon-Simple-Notification-Service_Topic_48" stroke="none" stroke-width="1" fill="none" fill-rule="evenodd">
        <path d="M44,38.5 L46,38.5 L46,36.5 L44,36.5 L44,38.5 Z M46,33 L46,34.5 L44,34.5 L44,34 L43.5,34 L43.5,32 L45,32 C45.553,32 46,32.447 46,33 L46,33 Z M13.5,34 L16.5,34 L16.5,32 L13.5,32 L13.5,34 Z M37.5,34 L40.5,34 L40.5,32 L37.5,32 L37.5,34 Z M19.5,34 L22.5,34 L22.5,32 L19.5,32 L19.5,34 Z M7.5,34 L10.5,34 L10.5,32 L7.5,32 L7.5,34 Z M31.5,34 L34.5,34 L34.5,32 L31.5,32 L31.5,34 Z M25.5,34 L28.5,34 L28.5,32 L25.5,32 L25.5,34 Z M3,32 L4.5,32 L4.5,34 L4,34 L4,34.5 L2,34.5 L2,33 C2,32.447 2.447,32 3,32 L3,32 Z M2,38.5 L4,38.5 L4,36.5 L2,36.5 L2,38.5 Z M4,41 L4.5,41 L4.5,43 L3,43 C2.447,43 2,42.553 2,42 L2,40.5 L4,40.5 L4,41 Z M19.5,43 L22.5,43 L22.5,41 L19.5,41 L19.5,43 Z M31.5,43 L34.5,43 L34.5,41 L31.5,41 L31.5,43 Z M37.5,43 L40.5,43 L40.5,41 L37.5,41 L37.5,43 Z M7.5,43 L10.5,43 L10.5,41 L7.5,41 L7.5,43 Z M25.5,43 L28.5,43 L28.5,41 L25.5,41 L25.5,43 Z M13.5,43 L16.5,43 L16.5,41 L13.5,41 L13.5,43 Z M44,40.5 L46,40.5 L46,42 C46,42.553 45.553,43 45,43 L43.5,43 L43.5,41 L44,41 L44,40.5 Z M44,25.5 L46,25.5 L46,23.5 L44,23.5 L44,25.5 Z M46,20 L46,21.5 L44,21.5 L44,21 L43.5,21 L43.5,19 L45,19 C45.553,19 46,19.447 46,20 L46,20 Z M31.5,21 L34.5,21 L34.5,19 L31.5,19 L31.5,21 Z M7.5,21 L10.5,21 L10.5,19 L7.5,19 L7.5,21 Z M37.5,21 L40.5,21 L40.5,19 L37.5,19 L37.5,21 Z M13.5,21 L16.5,21 L16.5,19 L13.5,19 L13.5,21 Z M19.5,21 L22.5,21 L22.5,19 L19.5,19 L19.5,21 Z M25.5,21 L28.5,21 L28.5,19 L25.5,19 L25.5,21 Z M3,19 L4.5,19 L4.5,21 L4,21 L4,21.5 L2,21.5 L2,20 C2,19.447 2.447,19 3,19 L3,19 Z M2,25.5 L4,25.5 L4,23.5 L2,23.5 L2,25.5 Z M4,28 L4.5,28 L4.5,30 L3,30 C2.447,30 2,29.553 2,29 L2,27.5 L4,27.5 L4,28 Z M19.5,30 L22.5,30 L22.5,28 L19.5,28 L19.5,30 Z M31.5,30 L34.5,30 L34.5,28 L31.5,28 L31.5,30 Z M7.5,30 L10.5,30 L10.5,28 L7.5,28 L7.5,30 Z M13.5,30 L16.5,30 L16.5,28 L13.5,28 L13.5,30 Z M37.5,30 L40.5,30 L40.5,28 L37.5,28 L37.5,30 Z M25.5,30 L28.5,30 L28.5,28 L25.5,28 L25.5,30 Z M44,27.5 L46,27.5 L46,29 C46,29.553 45.553,30 45,30 L43.5,30 L43.5,28 L44,28 L44,27.5 Z M4,15 L44,15 L44,7 L4,7 L4,15 Z M45,5 L3,5 C2.447,5 2,5.447 2,6 L2,16 C2,16.553 2.447,17 3,17 L45,17 C45.553,17 46,16.553 46,16 L46,6 C46,5.447 45.553,5 45,5 L45,5 Z" id="Amazon-Simple-Notification-Service_Topic_Resource-Icon_light-bg" fill="#FF4F8B"></path>
    </g>
  </svg>

  <text x="564" y="76">SNS topic</text>

  <line x1="594" y1="34" x2="765" y2="34" stroke="#000"
    stroke-width="2" marker-end="url(#arrowhead)" />

  <text x="681.5" y="23" class="process">triggers a</text>

  <svg x="790" y="10">
    <g id="Icon-Resource/Compute/Res_Amazon-Lambda_Lambda-Function_48" stroke="none" stroke-width="1" fill="none" fill-rule="evenodd">
        <path d="M24,44 C12.972,44 4,35.028 4,24 C4,12.972 12.972,4 24,4 C35.028,4 44,12.972 44,24 C44,35.028 35.028,44 24,44 L24,44 Z M24,2 C11.869,2 2,11.869 2,24 C2,36.131 11.869,46 24,46 C36.131,46 46,36.131 46,24 C46,11.869 36.131,2 24,2 L24,2 Z M17.231,35.25 L11.876,35.25 L18.221,21.959 L20.902,27.492 L17.231,35.25 Z M19.114,19.215 C18.946,18.87 18.597,18.651 18.214,18.651 L18.211,18.651 C17.826,18.652 17.477,18.874 17.312,19.221 L9.389,35.819 C9.24,36.129 9.262,36.493 9.445,36.783 C9.628,37.074 9.947,37.25 10.291,37.25 L17.864,37.25 C18.251,37.25 18.603,37.027 18.769,36.678 L22.915,27.915 C23.044,27.642 23.043,27.323 22.911,27.051 L19.114,19.215 Z M36.125,35.25 L30.673,35.25 L20.761,13.953 C20.597,13.601 20.243,13.375 19.854,13.375 L16.251,13.375 L16.255,9.25 L23.475,9.25 L33.339,30.545 C33.503,30.898 33.856,31.125 34.246,31.125 L36.125,31.125 L36.125,35.25 Z M37.125,29.125 L34.885,29.125 L25.021,7.83 C24.856,7.477 24.503,7.25 24.113,7.25 L15.256,7.25 C14.704,7.25 14.257,7.697 14.256,8.249 L14.25,14.374 C14.25,14.64 14.355,14.894 14.543,15.082 C14.73,15.27 14.984,15.375 15.25,15.375 L19.217,15.375 L29.129,36.672 C29.293,37.024 29.646,37.25 30.035,37.25 L37.125,37.25 C37.678,37.25 38.125,36.803 38.125,36.25 L38.125,30.125 C38.125,29.572 37.678,29.125 37.125,29.125 L37.125,29.125 Z" id="Amazon-Lambda-Lambda-Function_Resource-Icon_light-bg" fill="#FF9900"></path>
    </g>
  </svg>

  <text x="814" y="76">Lambda function</text>

  <line x1="814" y1="93" x2="814" y2="184" stroke="#000"
    stroke-width="2" marker-end="url(#arrowhead)" />

  <text x="806" y="143" class="process process_right">sends a message to our</text>

  <svg x="790" y="210">
    <g transform="scale(0.377)">
      <path d="M27.2 80c0 7.3-5.9 13.2-13.2 13.2C6.7 93.2.8 87.3.8 80c0-7.3 5.9-13.2 13.2-13.2h13.2V80zm6.6 0c0-7.3 5.9-13.2 13.2-13.2 7.3 0 13.2 5.9 13.2 13.2v33c0 7.3-5.9 13.2-13.2 13.2-7.3 0-13.2-5.9-13.2-13.2V80z" fill="#E01E5A"/>
      <path d="M47 27c-7.3 0-13.2-5.9-13.2-13.2C33.8 6.5 39.7.6 47 .6c7.3 0 13.2 5.9 13.2 13.2V27H47zm0 6.7c7.3 0 13.2 5.9 13.2 13.2 0 7.3-5.9 13.2-13.2 13.2H13.9C6.6 60.1.7 54.2.7 46.9c0-7.3 5.9-13.2 13.2-13.2H47z" fill="#36C5F0"/>
      <path d="M99.9 46.9c0-7.3 5.9-13.2 13.2-13.2 7.3 0 13.2 5.9 13.2 13.2 0 7.3-5.9 13.2-13.2 13.2H99.9V46.9zm-6.6 0c0 7.3-5.9 13.2-13.2 13.2-7.3 0-13.2-5.9-13.2-13.2V13.8C66.9 6.5 72.8.6 80.1.6c7.3 0 13.2 5.9 13.2 13.2v33.1z" fill="#2EB67D"/>
      <path d="M80.1 99.8c7.3 0 13.2 5.9 13.2 13.2 0 7.3-5.9 13.2-13.2 13.2-7.3 0-13.2-5.9-13.2-13.2V99.8h13.2zm0-6.6c-7.3 0-13.2-5.9-13.2-13.2 0-7.3 5.9-13.2 13.2-13.2h33.1c7.3 0 13.2 5.9 13.2 13.2 0 7.3-5.9 13.2-13.2 13.2H80.1z" fill="#ECB22E"/>
    </g>
  </svg>

  <text x="814" y="277">Slack channel</text>

</svg>
