<svg viewBox="0 0 900 500" xmlns="http://www.w3.org/2000/svg" xmlns:xlink="http://www.w3.org/1999/xlink">
  <defs>
    <style>
      text {
        fill: black;
        stroke: none;
        dominant-baseline: middle;
        text-anchor: middle;
        font-size: 14pt;
        font-family: sans-serif;
      }

      text.process {
        font-size: 11pt;
      }

      text.process_left {
        text-anchor: start;
      }

      text.process_right {
        text-anchor: end;
      }

      line {
        stroke-linecap: round;
      }
    </style>

    <marker id="arrowhead" markerWidth="10" markerHeight="7"
      refX="0" refY="3.5" orient="auto">
      <!-- <polygon points="0 0, 10 3.5, 0 7" /> -->
      <line x1="1" y1="1.5" x2="7" y2="3.5" stroke="#000"/>
      <line x1="1" y1="5.5" x2="7" y2="3.5" stroke="#000"/>
      <line x1="0" y1="3.5" x2="7" y2="3.5" stroke="#000"/>
    </marker>
  </defs>

  <svg x="40" y="10">
    <g id="Icon-Resource/Application-Integration/Res_Amazon-Simple-Queue-Service_Queue_48" stroke="none" stroke-width="1" fill="none" fill-rule="evenodd">
      <path d="M37.449,22.261 L37.449,26.221 L35.026,24.207 L37.449,22.261 Z M37.81,29.121 C37.993,29.273 38.22,29.352 38.449,29.352 C38.594,29.352 38.738,29.321 38.874,29.257 C39.224,29.092 39.449,28.74 39.449,28.352 L39.449,20.176 C39.449,19.791 39.228,19.441 38.882,19.275 C38.535,19.108 38.123,19.156 37.823,19.397 L32.819,23.414 C32.585,23.602 32.448,23.885 32.4449503,24.185 C32.442,24.486 32.575,24.771 32.806,24.963 L37.81,29.121 Z M10.527,22.307 L12.951,24.322 L10.527,26.267 L10.527,22.307 Z M9.095,29.253 C9.232,29.32 9.38,29.352 9.527,29.352 C9.751,29.352 9.972,29.277 10.153,29.132 L15.158,25.115 C15.392,24.927 15.529,24.644 15.5320497,24.344 C15.535,24.043 15.402,23.758 15.171,23.566 L10.166,19.407 C9.868,19.16 9.453,19.107 9.102,19.271 C8.752,19.436 8.527,19.788 8.527,20.176 L8.527,28.352 C8.527,28.737 8.748,29.087 9.095,29.253 L9.095,29.253 Z M28.368,34.027 L30.368,34.027 L30.368,14.747 L28.368,14.747 L28.368,34.027 Z M23.121,34.027 L25.121,34.027 L25.121,14.747 L23.121,14.747 L23.121,34.027 Z M17.711,34.027 L19.711,34.027 L19.711,14.747 L17.711,14.747 L17.711,34.027 Z M3.999,35.773 L43.977,35.773 L43.977,13.001 L3.999,13.001 L3.999,35.773 Z M44.977,11 L3,11 C2.447,11 2,11.448 2,12 L2,36.773 C2,37.325 2.447,37.773 3,37.773 L44.977,37.773 C45.53,37.773 45.977,37.325 45.977,36.773 L45.977,12 C45.977,11.448 45.53,11 44.977,11 L44.977,11 Z" id="Amazon-Simple-Notification-Service_Queue" fill="#FF4F8B"></path>
    </g>
  </svg>

  <text x="64" y="67">queue</text>

  <line x1="98" y1="34" x2="265" y2="34" stroke="#000"
    stroke-width="2" marker-end="url(#arrowhead)" />

  <text x="181.5" y="23" class="process">processes messages</text>

  <svg x="290" y="10">
    <g id="Icon-Resource/Containers/Res_Amazon-Elastic-Container-Service_Container-1_48" stroke="none" stroke-width="1" fill="none" fill-rule="evenodd">
        <path d="M38.725,33.7354 L40.725,33.7354 L40.725,14.4974 L38.725,14.4974 L38.725,33.7354 Z M33.479,33.7354 L35.479,33.7354 L35.479,14.4974 L33.479,14.4974 L33.479,33.7354 Z M28.232,33.7354 L30.232,33.7354 L30.232,14.4974 L28.232,14.4974 L28.232,33.7354 Z M22.986,33.7354 L24.986,33.7354 L24.986,14.4974 L22.986,14.4974 L22.986,33.7354 Z M17.739,33.7354 L19.739,33.7354 L19.739,14.4974 L17.739,14.4974 L17.739,33.7354 Z M12.493,33.7354 L14.493,33.7354 L14.493,14.4974 L12.493,14.4974 L12.493,33.7354 Z M7.246,33.7354 L9.246,33.7354 L9.246,14.4974 L7.246,14.4974 L7.246,33.7354 Z M3.999,36.2324 L43.972,36.2324 L43.972,12.0004 L3.999,12.0004 L3.999,36.2324 Z M44.972,9.9994 L3,9.9994 C2.447,9.9994 2,10.4474 2,10.9994 L2,37.2324 C2,37.7844 2.447,38.2324 3,38.2324 L44.972,38.2324 C45.525,38.2324 45.972,37.7844 45.972,37.2324 L45.972,10.9994 C45.972,10.4474 45.525,9.9994 44.972,9.9994 L44.972,9.9994 Z" id="Amazon-Elastic-Container-Service-Container-1_Resource-Icon_light-bg" fill="#FF9900"></path>
    </g>
  </svg>

  <text x="314" y="67">worker</text>

  <line x1="64" y1="83" x2="64" y2="194" stroke="#000"
    stroke-width="2" marker-end="url(#arrowhead)" />

  <text x="73" y="129" class="process process_left">unprocessed messages</text>
  <text x="73" y="148" class="process process_left">are sent to</text>

  <svg x="40" y="210">
    <g id="Icon-Resource/Application-Integration/Res_Amazon-Simple-Queue-Service_Queue_48" stroke="none" stroke-width="1" fill="none" fill-rule="evenodd">
      <path d="M37.449,22.261 L37.449,26.221 L35.026,24.207 L37.449,22.261 Z M37.81,29.121 C37.993,29.273 38.22,29.352 38.449,29.352 C38.594,29.352 38.738,29.321 38.874,29.257 C39.224,29.092 39.449,28.74 39.449,28.352 L39.449,20.176 C39.449,19.791 39.228,19.441 38.882,19.275 C38.535,19.108 38.123,19.156 37.823,19.397 L32.819,23.414 C32.585,23.602 32.448,23.885 32.4449503,24.185 C32.442,24.486 32.575,24.771 32.806,24.963 L37.81,29.121 Z M10.527,22.307 L12.951,24.322 L10.527,26.267 L10.527,22.307 Z M9.095,29.253 C9.232,29.32 9.38,29.352 9.527,29.352 C9.751,29.352 9.972,29.277 10.153,29.132 L15.158,25.115 C15.392,24.927 15.529,24.644 15.5320497,24.344 C15.535,24.043 15.402,23.758 15.171,23.566 L10.166,19.407 C9.868,19.16 9.453,19.107 9.102,19.271 C8.752,19.436 8.527,19.788 8.527,20.176 L8.527,28.352 C8.527,28.737 8.748,29.087 9.095,29.253 L9.095,29.253 Z M28.368,34.027 L30.368,34.027 L30.368,14.747 L28.368,14.747 L28.368,34.027 Z M23.121,34.027 L25.121,34.027 L25.121,14.747 L23.121,14.747 L23.121,34.027 Z M17.711,34.027 L19.711,34.027 L19.711,14.747 L17.711,14.747 L17.711,34.027 Z M3.999,35.773 L43.977,35.773 L43.977,13.001 L3.999,13.001 L3.999,35.773 Z M44.977,11 L3,11 C2.447,11 2,11.448 2,12 L2,36.773 C2,37.325 2.447,37.773 3,37.773 L44.977,37.773 C45.53,37.773 45.977,37.325 45.977,36.773 L45.977,12 C45.977,11.448 45.53,11 44.977,11 L44.977,11 Z" id="Amazon-Simple-Notification-Service_Queue" fill="#FF4F8B"></path>
    </g>
  </svg>

  <text x="64" y="276">dead-letter</text>
  <text x="64" y="298">queue</text>

  <line x1="98" y1="234" x2="265" y2="234" stroke="#000"
    stroke-width="2" marker-end="url(#arrowhead)" />

  <text x="181.5" y="223" class="process">updates a</text>

  <svg x="290" y="205">
    <g id="Icon-Resource/Managment-Governance/Res_Amazon-Cloudwatch_Alarm_48" stroke="none" stroke-width="1" fill="none" fill-rule="evenodd">
        <path d="M41.4246,40.6675 L34.6366,40.6675 L34.6366,19.8305 C36.8216,20.5265 39.2386,20.5265 41.4246,19.8305 L41.4246,40.6675 Z M41.9946,17.4595 C39.4996,18.6475 36.5596,18.6465 34.0666,17.4595 C33.7586,17.3125 33.3946,17.3335 33.1026,17.5165 C32.8126,17.6995 32.6366,18.0185 32.6366,18.3615 L32.6366,41.6675 C32.6366,42.2205 33.0836,42.6675 33.6366,42.6675 L42.4246,42.6675 C42.9776,42.6675 43.4246,42.2205 43.4246,41.6675 L43.4246,18.3615 C43.4246,18.0185 43.2486,17.6995 42.9586,17.5165 C42.6676,17.3335 42.3036,17.3115 41.9946,17.4595 L41.9946,17.4595 Z M38.0306,4.0005 C40.8716,4.0005 43.1826,6.3115 43.1826,9.1515 C43.1826,11.9925 40.8716,14.3035 38.0306,14.3035 C35.1906,14.3035 32.8796,11.9925 32.8796,9.1515 C32.8796,6.3115 35.1906,4.0005 38.0306,4.0005 L38.0306,4.0005 Z M38.0306,16.3035 C41.9746,16.3035 45.1826,13.0955 45.1826,9.1515 C45.1826,5.2085 41.9746,2.0005 38.0306,2.0005 C34.0876,2.0005 30.8796,5.2085 30.8796,9.1515 C30.8796,13.0955 34.0876,16.3035 38.0306,16.3035 L38.0306,16.3035 Z M2.0006,46.1835 L45.9406,46.1835 L45.9406,44.1835 L2.0006,44.1835 L2.0006,46.1835 Z M20.5756,40.6675 L27.3636,40.6675 L27.3636,27.7285 L20.5756,27.7285 L20.5756,40.6675 Z M19.5756,42.6675 L28.3636,42.6675 C28.9166,42.6675 29.3636,42.2205 29.3636,41.6675 L29.3636,26.7285 C29.3636,26.1755 28.9166,25.7285 28.3636,25.7285 L19.5756,25.7285 C19.0236,25.7285 18.5756,26.1755 18.5756,26.7285 L18.5756,41.6675 C18.5756,42.2205 19.0236,42.6675 19.5756,42.6675 L19.5756,42.6675 Z M6.5156,40.6675 L13.3036,40.6675 L13.3036,23.3345 L6.5156,23.3345 L6.5156,40.6675 Z M5.5156,42.6675 L14.3036,42.6675 C14.8566,42.6675 15.3036,42.2205 15.3036,41.6675 L15.3036,22.3345 C15.3036,21.7815 14.8566,21.3345 14.3036,21.3345 L5.5156,21.3345 C4.9626,21.3345 4.5156,21.7815 4.5156,22.3345 L4.5156,41.6675 C4.5156,42.2205 4.9626,42.6675 5.5156,42.6675 L5.5156,42.6675 Z" id="Amazon-Cloudwatch_alarm_Resource-Icon_light-bg" fill="#FF4F8B"></path>
    </g>
  </svg>

  <text x="314" y="276">CloudWatch alarm</text>

  <line x1="344" y1="234" x2="515" y2="234" stroke="#000"
    stroke-width="2" marker-end="url(#arrowhead)" />

  <text x="431.5" y="223" class="process">sends a notification to</text>

  <svg x="540" y="210">
    <g id="Icon-Resource/Application-Integration/Res_Amazon-Simple-Notification-Service_Topic_48" stroke="none" stroke-width="1" fill="none" fill-rule="evenodd">
        <path d="M44,38.5 L46,38.5 L46,36.5 L44,36.5 L44,38.5 Z M46,33 L46,34.5 L44,34.5 L44,34 L43.5,34 L43.5,32 L45,32 C45.553,32 46,32.447 46,33 L46,33 Z M13.5,34 L16.5,34 L16.5,32 L13.5,32 L13.5,34 Z M37.5,34 L40.5,34 L40.5,32 L37.5,32 L37.5,34 Z M19.5,34 L22.5,34 L22.5,32 L19.5,32 L19.5,34 Z M7.5,34 L10.5,34 L10.5,32 L7.5,32 L7.5,34 Z M31.5,34 L34.5,34 L34.5,32 L31.5,32 L31.5,34 Z M25.5,34 L28.5,34 L28.5,32 L25.5,32 L25.5,34 Z M3,32 L4.5,32 L4.5,34 L4,34 L4,34.5 L2,34.5 L2,33 C2,32.447 2.447,32 3,32 L3,32 Z M2,38.5 L4,38.5 L4,36.5 L2,36.5 L2,38.5 Z M4,41 L4.5,41 L4.5,43 L3,43 C2.447,43 2,42.553 2,42 L2,40.5 L4,40.5 L4,41 Z M19.5,43 L22.5,43 L22.5,41 L19.5,41 L19.5,43 Z M31.5,43 L34.5,43 L34.5,41 L31.5,41 L31.5,43 Z M37.5,43 L40.5,43 L40.5,41 L37.5,41 L37.5,43 Z M7.5,43 L10.5,43 L10.5,41 L7.5,41 L7.5,43 Z M25.5,43 L28.5,43 L28.5,41 L25.5,41 L25.5,43 Z M13.5,43 L16.5,43 L16.5,41 L13.5,41 L13.5,43 Z M44,40.5 L46,40.5 L46,42 C46,42.553 45.553,43 45,43 L43.5,43 L43.5,41 L44,41 L44,40.5 Z M44,25.5 L46,25.5 L46,23.5 L44,23.5 L44,25.5 Z M46,20 L46,21.5 L44,21.5 L44,21 L43.5,21 L43.5,19 L45,19 C45.553,19 46,19.447 46,20 L46,20 Z M31.5,21 L34.5,21 L34.5,19 L31.5,19 L31.5,21 Z M7.5,21 L10.5,21 L10.5,19 L7.5,19 L7.5,21 Z M37.5,21 L40.5,21 L40.5,19 L37.5,19 L37.5,21 Z M13.5,21 L16.5,21 L16.5,19 L13.5,19 L13.5,21 Z M19.5,21 L22.5,21 L22.5,19 L19.5,19 L19.5,21 Z M25.5,21 L28.5,21 L28.5,19 L25.5,19 L25.5,21 Z M3,19 L4.5,19 L4.5,21 L4,21 L4,21.5 L2,21.5 L2,20 C2,19.447 2.447,19 3,19 L3,19 Z M2,25.5 L4,25.5 L4,23.5 L2,23.5 L2,25.5 Z M4,28 L4.5,28 L4.5,30 L3,30 C2.447,30 2,29.553 2,29 L2,27.5 L4,27.5 L4,28 Z M19.5,30 L22.5,30 L22.5,28 L19.5,28 L19.5,30 Z M31.5,30 L34.5,30 L34.5,28 L31.5,28 L31.5,30 Z M7.5,30 L10.5,30 L10.5,28 L7.5,28 L7.5,30 Z M13.5,30 L16.5,30 L16.5,28 L13.5,28 L13.5,30 Z M37.5,30 L40.5,30 L40.5,28 L37.5,28 L37.5,30 Z M25.5,30 L28.5,30 L28.5,28 L25.5,28 L25.5,30 Z M44,27.5 L46,27.5 L46,29 C46,29.553 45.553,30 45,30 L43.5,30 L43.5,28 L44,28 L44,27.5 Z M4,15 L44,15 L44,7 L4,7 L4,15 Z M45,5 L3,5 C2.447,5 2,5.447 2,6 L2,16 C2,16.553 2.447,17 3,17 L45,17 C45.553,17 46,16.553 46,16 L46,6 C46,5.447 45.553,5 45,5 L45,5 Z" id="Amazon-Simple-Notification-Service_Topic_Resource-Icon_light-bg" fill="#FF4F8B"></path>
    </g>
  </svg>

  <text x="564" y="276">SNS topic</text>

  <line x1="594" y1="234" x2="765" y2="234" stroke="#000"
    stroke-width="2" marker-end="url(#arrowhead)" />

  <text x="681.5" y="223" class="process">triggers a</text>

  <svg x="790" y="210">
    <g id="Icon-Resource/Compute/Res_Amazon-Lambda_Lambda-Function_48" stroke="none" stroke-width="1" fill="none" fill-rule="evenodd">
        <path d="M24,44 C12.972,44 4,35.028 4,24 C4,12.972 12.972,4 24,4 C35.028,4 44,12.972 44,24 C44,35.028 35.028,44 24,44 L24,44 Z M24,2 C11.869,2 2,11.869 2,24 C2,36.131 11.869,46 24,46 C36.131,46 46,36.131 46,24 C46,11.869 36.131,2 24,2 L24,2 Z M17.231,35.25 L11.876,35.25 L18.221,21.959 L20.902,27.492 L17.231,35.25 Z M19.114,19.215 C18.946,18.87 18.597,18.651 18.214,18.651 L18.211,18.651 C17.826,18.652 17.477,18.874 17.312,19.221 L9.389,35.819 C9.24,36.129 9.262,36.493 9.445,36.783 C9.628,37.074 9.947,37.25 10.291,37.25 L17.864,37.25 C18.251,37.25 18.603,37.027 18.769,36.678 L22.915,27.915 C23.044,27.642 23.043,27.323 22.911,27.051 L19.114,19.215 Z M36.125,35.25 L30.673,35.25 L20.761,13.953 C20.597,13.601 20.243,13.375 19.854,13.375 L16.251,13.375 L16.255,9.25 L23.475,9.25 L33.339,30.545 C33.503,30.898 33.856,31.125 34.246,31.125 L36.125,31.125 L36.125,35.25 Z M37.125,29.125 L34.885,29.125 L25.021,7.83 C24.856,7.477 24.503,7.25 24.113,7.25 L15.256,7.25 C14.704,7.25 14.257,7.697 14.256,8.249 L14.25,14.374 C14.25,14.64 14.355,14.894 14.543,15.082 C14.73,15.27 14.984,15.375 15.25,15.375 L19.217,15.375 L29.129,36.672 C29.293,37.024 29.646,37.25 30.035,37.25 L37.125,37.25 C37.678,37.25 38.125,36.803 38.125,36.25 L38.125,30.125 C38.125,29.572 37.678,29.125 37.125,29.125 L37.125,29.125 Z" id="Amazon-Lambda-Lambda-Function_Resource-Icon_light-bg" fill="#FF9900"></path>
    </g>
  </svg>

  <text x="814" y="276">Lambda function</text>

  <line x1="814" y1="293" x2="814" y2="384" stroke="#000"
    stroke-width="2" marker-end="url(#arrowhead)" />

  <text x="806" y="343" class="process process_right">sends a message to our</text>

  <svg x="790" y="410">
    <svg transform="scale(0.377)">
      <path d="M27.2 80c0 7.3-5.9 13.2-13.2 13.2C6.7 93.2.8 87.3.8 80c0-7.3 5.9-13.2 13.2-13.2h13.2V80zm6.6 0c0-7.3 5.9-13.2 13.2-13.2 7.3 0 13.2 5.9 13.2 13.2v33c0 7.3-5.9 13.2-13.2 13.2-7.3 0-13.2-5.9-13.2-13.2V80z" fill="#E01E5A"/>
      <path d="M47 27c-7.3 0-13.2-5.9-13.2-13.2C33.8 6.5 39.7.6 47 .6c7.3 0 13.2 5.9 13.2 13.2V27H47zm0 6.7c7.3 0 13.2 5.9 13.2 13.2 0 7.3-5.9 13.2-13.2 13.2H13.9C6.6 60.1.7 54.2.7 46.9c0-7.3 5.9-13.2 13.2-13.2H47z" fill="#36C5F0"/>
      <path d="M99.9 46.9c0-7.3 5.9-13.2 13.2-13.2 7.3 0 13.2 5.9 13.2 13.2 0 7.3-5.9 13.2-13.2 13.2H99.9V46.9zm-6.6 0c0 7.3-5.9 13.2-13.2 13.2-7.3 0-13.2-5.9-13.2-13.2V13.8C66.9 6.5 72.8.6 80.1.6c7.3 0 13.2 5.9 13.2 13.2v33.1z" fill="#2EB67D"/>
      <path d="M80.1 99.8c7.3 0 13.2 5.9 13.2 13.2 0 7.3-5.9 13.2-13.2 13.2-7.3 0-13.2-5.9-13.2-13.2V99.8h13.2zm0-6.6c-7.3 0-13.2-5.9-13.2-13.2 0-7.3 5.9-13.2 13.2-13.2h33.1c7.3 0 13.2 5.9 13.2 13.2 0 7.3-5.9 13.2-13.2 13.2H80.1z" fill="#ECB22E"/>
    </svg>
  </svg>

  <text x="814" y="477">Slack channel</text>

</svg>
